<?xml version="1.0" encoding="UTF-8"?>
<svg id="Ebene_1" data-name="Ebene 1" xmlns="http://www.w3.org/2000/svg" xmlns:xlink="http://www.w3.org/1999/xlink" viewBox="0 0 574.48 589.36">
  <defs>
    <style>
      .cls-1, .cls-2 {
        fill: none;
      }

      .cls-2 {
        stroke-width: 5.08px;
      }

      .cls-2, .cls-3, .cls-4 {
        stroke: #fff;
        stroke-miterlimit: 10;
      }

      .cls-3 {
        stroke-width: 10.16px;
      }

      .cls-5 {
        fill: #fff;
      }

      .cls-4 {
        stroke-width: 6.09px;
      }

      .cls-6 {
        clip-path: url(#clippath);
      }
    </style>
    <clipPath id="clippath">
      <circle class="cls-1" cx="287.24" cy="353.96" r="210.18"/>
    </clipPath>
  </defs>
  <path class="cls-3" d="M569.4,223.05v161.23h-52.65c-9.93,112.02-108.89,200-229.51,200s-219.57-87.98-229.51-200H5.08v-161.23h51.83V47.43h161.89l19.5-26,19.49,26h.22l29.22-38.96,29.22,38.96h.44l19.29-25.72,19.29,25.72h162.09v175.62h51.83Z"/>
  <path d="M57.73,384.28c9.93,112.02,108.89,200,229.51,200s219.57-87.98,229.51-200H57.73Z"/>
  <polygon points="517.57 47.43 517.57 223.05 569.4 223.05 569.4 384.28 5.08 384.28 5.08 223.05 56.91 223.05 56.91 47.43 517.57 47.43"/>
  <polygon points="257.79 47.43 258.02 47.43 287.24 8.46 316.46 47.43 316.68 47.43 257.79 47.43"/>
  <g class="cls-6">
    <g>
      <path class="cls-5" d="M69.1,394.16c152.14-42.08,304.29,23.55,456.43-21.65v18.46c-152.14,42.96-304.29-28.42-456.43,12.23,0-3.01,0-6.03,0-9.04t0,0Z"/>
      <path class="cls-5" d="M69.1,423.41c152.14-41.6,304.29,33.2,456.43-11.35v11.2c-152.14,44.02-304.29-32.88-456.43,8.29,0-2.71,0-5.42,0-8.14t0,0Z"/>
      <path class="cls-5" d="M69.1,452.67c152.14-40.58,304.29,39.25,456.43-4.42v10.67c-152.14,42.55-304.29-38.69-456.43.98,0-2.41,0-4.82,0-7.23t0,0Z"/>
      <path class="cls-5" d="M69.1,481.92c152.14-38.25,304.29,43.93,456.43,2.56v10.06c-152.14,39.77-304.29-43.24-456.43-6.29,0-2.11,0-4.22,0-6.33t0,0Z"/>
      <path class="cls-5" d="M69.1,511.18c152.14-34.54,304.29,47.37,456.43,9.8v8.91c-152.14,35.78-304.29-46.36-456.43-13.28,0-1.81,0-3.62,0-5.42t0,0Z"/>
      <path class="cls-2" d="M69.1,542.69c152.14-28.76,304.29,50.08,456.43,18.66"/>
    </g>
  </g>
  <polygon points="336.18 21.7 293 79.29 379.37 79.29 336.18 21.7"/>
  <polygon points="238.29 21.42 195.11 79 281.48 79 238.29 21.42"/>
  <g>
    <g>
      <rect class="cls-5" x="77.06" y="67.58" width="420.35" height="175.63"/>
      <rect x="85.7" y="76.22" width="403.08" height="166.99"/>
    </g>
    <g>
      <g>
        <path d="M257.6,219.59v-21.84h5.9v22.04c0,4.49-1.25,7.88-3.75,10.19-2.5,2.31-6.18,3.46-11.02,3.46-4.58,0-8.16-.99-10.73-2.97-2.57-1.98-4.06-4.94-4.49-8.87h5.95c.46,2.31,1.41,4.01,2.88,5.12,1.46,1.11,3.56,1.66,6.29,1.66,3.05,0,5.31-.71,6.78-2.15,1.46-1.43,2.19-3.64,2.19-6.63Z"/>
        <path d="M295.82,223.15c0-1.46-.58-2.61-1.73-3.44-1.15-.83-3-1.42-5.53-1.78l-6.09-.93c-4.71-.68-8.08-1.82-10.09-3.41-2.02-1.59-3.02-3.88-3.02-6.87s1.41-5.5,4.22-7.24c2.81-1.74,6.72-2.61,11.73-2.61,4.55,0,8.07.74,10.55,2.22,2.49,1.48,4.18,3.84,5.09,7.09l-5.61.88c-.78-1.92-1.95-3.29-3.51-4.12-1.56-.83-3.75-1.24-6.58-1.24-3.19,0-5.65.42-7.39,1.27-1.74.85-2.61,2.05-2.61,3.61s.56,2.62,1.68,3.36c1.12.75,3.11,1.35,5.97,1.8l6.87,1.02c4.13.62,7.17,1.76,9.12,3.44,1.95,1.67,2.92,3.99,2.92,6.95,0,3.25-1.39,5.78-4.17,7.58-2.78,1.8-6.7,2.71-11.77,2.71-10.86,0-16.67-3.75-17.45-11.26h5.95c.46,2.18,1.62,3.79,3.51,4.85,1.88,1.06,4.57,1.58,8.04,1.58,3.18,0,5.63-.47,7.34-1.41,1.71-.94,2.56-2.29,2.56-4.05Z"/>
        <path d="M321.86,226.66l12.24-28.91h6.53l-15.6,34.81h-6.53l-15.6-34.81h6.73l12.24,28.91Z"/>
      </g>
      <g>
        <polygon class="cls-4" points="147.6 246.25 177.02 181.26 157.68 181.26 198.08 113.44 186.47 113.44 238.3 45.92 290.12 113.44 278.52 113.44 318.91 181.26 299.56 181.26 328.99 246.25 147.6 246.25"/>
        <polygon class="cls-4" points="245.49 246.25 274.91 181.26 255.57 181.26 295.97 113.44 284.36 113.44 336.19 45.92 388.01 113.44 376.41 113.44 416.8 181.26 397.46 181.26 426.88 246.25 245.49 246.25"/>
        <polygon class="cls-5" points="205.58 243.6 234.17 168.16 213.33 168.16 255.39 88.48 244.05 88.48 287.24 28.13 330.43 88.48 319.09 88.48 361.15 168.16 340.31 168.16 368.9 243.6 205.58 243.6"/>
        <g>
          <path class="cls-5" d="M377.88,219.41l-5.15,2.08-.82-2.39,7.48-3.1h1.71v20.36h-3.21v-16.95Z"/>
          <path class="cls-5" d="M392.87,236.36c4.49-4.07,6.2-5.83,8.13-8.42-1.42.82-2.64,1.14-4.35,1.14-4.49,0-7.37-2.56-7.37-6.6s3.13-6.77,8.25-6.77,8.22,2.59,8.22,6.71-2.3,7.68-9.07,13.94h-3.81ZM392.56,222.43c0,2.7,1.91,4.41,4.98,4.41s4.98-1.71,4.98-4.35-1.88-4.41-5.01-4.41-4.95,1.68-4.95,4.35Z"/>
        </g>
        <g>
          <path class="cls-5" d="M168.44,234.86l8.11-7.68c2.36-2.25,3.44-4.01,3.44-5.63,0-2.1-1.56-3.3-4.27-3.3-1.79,0-3.61.54-5.23,1.54l-.91-2.3c2.1-1.22,3.98-1.71,6.43-1.71,4.58,0,7.28,2.1,7.28,5.72,0,1.37-.4,2.59-1.28,3.78-.8,1.14-2.05,2.5-2.93,3.27l-6.34,5.38h11.32v2.5h-15.61v-1.56Z"/>
          <path class="cls-5" d="M204.36,226.27c0,7.11-2.73,10.5-8.45,10.5s-8.42-3.38-8.42-10.61,2.76-10.38,8.42-10.38,8.45,3.38,8.45,10.5ZM190.76,226.18c0,5.52,1.68,8.13,5.15,8.13s5.18-2.65,5.18-8.05-1.71-8.02-5.15-8.02-5.18,2.65-5.18,7.94Z"/>
        </g>
      </g>
      <g>
        <path d="M257.77,222.56v-21.84h5.9v22.04c0,4.49-1.25,7.88-3.75,10.19-2.5,2.31-6.18,3.46-11.02,3.46-4.58,0-8.16-.99-10.73-2.97-2.57-1.98-4.06-4.94-4.49-8.87h5.95c.46,2.31,1.41,4.01,2.88,5.12,1.46,1.1,3.56,1.66,6.29,1.66,3.06,0,5.31-.71,6.78-2.15,1.46-1.43,2.19-3.64,2.19-6.63Z"/>
        <path d="M295.99,226.12c0-1.46-.58-2.61-1.73-3.44-1.15-.83-3-1.42-5.53-1.78l-6.09-.93c-4.71-.68-8.08-1.82-10.09-3.41-2.02-1.59-3.02-3.88-3.02-6.87s1.41-5.5,4.22-7.24c2.81-1.74,6.72-2.61,11.73-2.61,4.55,0,8.07.74,10.55,2.22,2.49,1.48,4.18,3.84,5.1,7.09l-5.61.88c-.78-1.92-1.95-3.29-3.51-4.12s-3.75-1.24-6.58-1.24c-3.19,0-5.65.42-7.39,1.27-1.74.85-2.61,2.05-2.61,3.61s.56,2.62,1.68,3.36c1.12.75,3.11,1.35,5.97,1.8l6.87,1.02c4.13.62,7.17,1.76,9.12,3.44,1.95,1.67,2.93,3.99,2.93,6.95,0,3.25-1.39,5.78-4.17,7.58-2.78,1.8-6.7,2.71-11.77,2.71-10.86,0-16.67-3.75-17.45-11.26h5.95c.45,2.18,1.62,3.8,3.51,4.85,1.88,1.06,4.57,1.58,8.04,1.58,3.18,0,5.63-.47,7.34-1.41,1.71-.94,2.56-2.29,2.56-4.05Z"/>
        <path d="M322.02,229.63l12.24-28.91h6.53l-16,35.7h-5.75l-15.99-35.7h6.73l12.24,28.91Z"/>
      </g>
    </g>
  </g>
  <g>
    <g>
      <rect class="cls-5" x="25.24" y="243.21" width="524" height="120.92"/>
      <rect x="33.87" y="251.84" width="506.73" height="103.65"/>
    </g>
    <g>
      <g>
        <path class="cls-5" d="M77.04,306.65h26.38v4.24h-21.55v11.02h20.43v4.24h-20.43v15.31h-4.83v-34.81Z"/>
        <path class="cls-5" d="M112.53,341.46h-5.17l16.87-34.81h4.97l16.87,34.81h-5.36l-4.58-9.6h-19.06l-4.53,9.6ZM126.62,311.82l-7.7,16.04h15.41l-7.7-16.04Z"/>
        <path class="cls-5" d="M184.25,325.71h-22.82v15.75h-4.83v-34.81h4.83v14.53h22.82v-14.53h4.83v34.81h-4.83v-15.75Z"/>
        <path class="cls-5" d="M203.5,306.65h16.24c8.97,0,13.46,3.48,13.46,10.43,0,4.75-2.29,7.85-6.87,9.31l8.73,15.06h-5.56l-8.04-14.09c-.26.03-.56.05-.9.05h-12.31v14.04h-4.73v-34.81ZM228.17,316.98c0-2.14-.69-3.7-2.07-4.66-1.38-.96-3.62-1.44-6.7-1.44h-11.16v12.29h11.07c5.91,0,8.87-2.06,8.87-6.19Z"/>
        <path class="cls-5" d="M245.73,306.65h27.69v4.24h-22.87v10.48h21.74v4.24h-21.74v11.6h23.89l-.83,4.24h-27.89v-34.81Z"/>
        <path class="cls-5" d="M286.53,306.65h4.68l23.16,27.98v-27.98h4.73v34.81h-4.68l-23.16-27.98v27.98h-4.73v-34.81Z"/>
        <path class="cls-5" d="M333.53,306.65h15.5c9.13,0,13.7,2.97,13.7,8.92,0,3.77-1.9,6.26-5.7,7.46,4.71,1.59,7.07,4.37,7.07,8.34,0,3.28-1.22,5.79-3.66,7.51-2.44,1.72-6.01,2.58-10.73,2.58h-16.19v-34.81ZM355.66,311.94c-1.43-.8-3.72-1.19-6.87-1.19h-10.53v10.48h11.12c2.89,0,5.02-.44,6.39-1.32,1.36-.88,2.05-2.26,2.05-4.14,0-1.76-.72-3.03-2.15-3.83ZM359.08,331.46c0-4.1-3.15-6.14-9.46-6.14h-11.36v12.04h11.21c3.38,0,5.83-.46,7.34-1.39,1.51-.93,2.27-2.43,2.27-4.51Z"/>
        <path class="cls-5" d="M376.38,341.46h-5.17l16.87-34.81h4.97l16.87,34.81h-5.36l-4.58-9.6h-19.06l-4.53,9.6ZM390.47,311.82l-7.7,16.04h15.41l-7.7-16.04Z"/>
        <path class="cls-5" d="M416.51,324.05c0-3.67.77-6.87,2.32-9.6,1.54-2.73,3.71-4.86,6.51-6.39,2.79-1.53,6.06-2.29,9.8-2.29,9.13,0,14.77,3.82,16.92,11.46l-4.73.73c-1.01-2.79-2.46-4.81-4.36-6.05-1.9-1.23-4.51-1.85-7.83-1.85-2.8,0-5.21.57-7.24,1.71-2.03,1.14-3.6,2.75-4.7,4.85-1.1,2.1-1.66,4.58-1.66,7.43s.55,5.39,1.66,7.48c1.1,2.1,2.69,3.71,4.75,4.83s4.51,1.68,7.34,1.68c3.57,0,6.36-.65,8.36-1.95,2-1.3,3.32-3.33,3.97-6.09h4.97c-.68,4-2.5,7.05-5.46,9.17-2.96,2.11-6.91,3.17-11.85,3.17-3.84,0-7.16-.75-9.97-2.24-2.81-1.49-4.98-3.61-6.51-6.36-1.53-2.75-2.29-5.97-2.29-9.68Z"/>
        <path class="cls-5" d="M492.61,325.71h-22.82v15.75h-4.83v-34.81h4.83v14.53h22.82v-14.53h4.83v34.81h-4.83v-15.75Z"/>
      </g>
      <g>
        <path class="cls-5" d="M77.09,265.88h4.83v30.57h22.82l-.83,4.24h-26.81v-34.81Z"/>
        <path class="cls-5" d="M139.64,265.88h4.83v34.81h-4.83v-34.81Z"/>
        <path class="cls-5" d="M182.78,265.88h6l14.48,29.74,14.43-29.74h5.8v34.81h-4.68v-27.94l-13.65,27.94h-4.1l-13.65-27.59v27.59h-4.63v-34.81Z"/>
        <path class="cls-5" d="M261.81,265.88h15.5c9.13,0,13.7,2.97,13.7,8.92,0,3.77-1.9,6.26-5.7,7.46,4.71,1.59,7.07,4.37,7.07,8.34,0,3.28-1.22,5.79-3.66,7.51-2.44,1.72-6.01,2.58-10.73,2.58h-16.19v-34.81ZM283.95,271.17c-1.43-.8-3.72-1.19-6.87-1.19h-10.53v10.48h11.12c2.89,0,5.02-.44,6.39-1.32,1.36-.88,2.05-2.26,2.05-4.14,0-1.76-.72-3.03-2.15-3.83ZM287.36,290.69c0-4.1-3.15-6.14-9.46-6.14h-11.36v12.04h11.21c3.38,0,5.83-.46,7.34-1.39s2.27-2.43,2.27-4.51Z"/>
        <path class="cls-5" d="M328.56,300.69h-5.17l16.87-34.81h4.97l16.87,34.81h-5.36l-4.58-9.6h-19.06l-4.53,9.6ZM342.65,271.05l-7.7,16.04h15.41l-7.7-16.04Z"/>
        <path class="cls-5" d="M392.57,283.28c0-3.67.77-6.87,2.32-9.6s3.71-4.86,6.51-6.39c2.8-1.53,6.06-2.29,9.8-2.29,9.13,0,14.77,3.82,16.92,11.46l-4.73.73c-1.01-2.79-2.46-4.81-4.36-6.05-1.9-1.23-4.51-1.85-7.83-1.85-2.8,0-5.21.57-7.24,1.71-2.03,1.14-3.6,2.75-4.71,4.85s-1.66,4.58-1.66,7.43.55,5.39,1.66,7.48,2.69,3.71,4.75,4.83c2.06,1.12,4.51,1.68,7.34,1.68,3.57,0,6.36-.65,8.36-1.95,2-1.3,3.32-3.33,3.97-6.09h4.97c-.68,4-2.5,7.05-5.46,9.17-2.96,2.11-6.91,3.17-11.85,3.17-3.84,0-7.16-.75-9.97-2.24-2.81-1.49-4.98-3.61-6.51-6.36-1.53-2.75-2.29-5.97-2.29-9.68Z"/>
        <path class="cls-5" d="M492.56,284.94h-22.82v15.75h-4.83v-34.81h4.83v14.53h22.82v-14.53h4.83v34.81h-4.83v-15.75Z"/>
      </g>
    </g>
  </g>
</svg>